




Plot:

A Marine platoon faces off against an alien invasion in Los Angeles.

DETAILS:

General
Complete name                    : Battle Los Angeles R5 Xvid - Chaos[A Pure Release].avi
Format                           : AVI
Format/Info                      : Audio Video Interleave
File size                        : 1.39 GiB
Duration                         : 1h 51mn
Overall bit rate                 : 1 783 Kbps

Video
ID                               : 0
Format                           : MPEG-4 Visual
Format profile                   : Advanced Simple@L5
Format settings, BVOP            : Yes
Format settings, QPel            : No
Format settings, GMC             : No warppoints
Format settings, Matrix          : Default (H.263)
Codec ID                         : XVID
Codec ID/Hint                    : XviD
Duration                         : 1h 51mn
Bit rate                         : 1 650 Kbps
Width                            : 720 pixels
Height                           : 304 pixels
Display aspect ratio             : 2.35:1
Frame rate                       : 25.000 fps
Color space                      : YUV
Chroma subsampling               : 4:2:0
Bit depth                        : 8 bits
Scan type                        : Progressive
Bits/(Pixel*Frame)               : 0.302
Stream size                      : 1.28 GiB (93%)
Writing library                  : XviD 1.2.1 (UTC 2008-12-04)

Audio
ID                               : 1
Format                           : AC-3
Format/Info                      : Audio Coding 3
Mode extension                   : CM (complete main)
Codec ID                         : 2000
Duration                         : 1h 49mn
Bit rate mode                    : Constant
Bit rate                         : 128 Kbps
Channel(s)                       : 2 channels
Channel positions                : Front: L R
Sampling rate                    : 44.1 KHz
Bit depth                        : 16 bits
Stream size                      : 100 MiB (7%)
Alignment                        : Aligned on interleaves
Interleave, duration             : 71 ms (1.77 video frames)
Interleave, preload duration     : 208 ms

SOURCES:

Video: Russian DVD9....thanx
Audio: IMAGiNE....thanx

NOTES:

just ran a few filters, sharpened and brightened just a tad...

SCREENS:
 
http://imgboot.com/images/edman74/vlcsnap2011040222h35m45s114.png
 
http://imgboot.com/images/edman74/vlcsnap2011040222h35m58s250.png
 
http://imgboot.com/images/edman74/vlcsnap2011040222h36m08s85.png
 
http://imgboot.com/images/edman74/vlcsnap2011040222h36m20s215.png
 
http://imgboot.com/images/edman74/battlelosangelesr5.jpg

----------=====Greetings=====----------
IMAGiNE, FLAWL3SS,Rx, Hive-CM8, Noir, BDK, TOXiC, iNK,  ELEKRI4KA, Serenity,
SAFCuk009 & fabrezzy, iLLUSiON and all other p2p groups ... Past Present and Future         

Scanned with:
KIS 2011.....Clean